<svg xmlns="http://www.w3.org/2000/svg" viewBox="0 0 64 64" width="40" height="40">
  <defs>
    <linearGradient id="g" x1="0" y1="0" x2="1" y2="1">
      <stop offset="0%" stop-color="#16a34a"/>
      <stop offset="100%" stop-color="#0f766e"/>
    </linearGradient>
  </defs>
  <polygon points="32,4 51,12 60,32 51,52 32,60 13,52 4,32 13,12"
           fill="none" stroke="url(#g)" stroke-width="3" stroke-linejoin="round"/>
  <polygon points="32,12 45,17 52,32 45,47 32,52 19,47 12,32 19,17"
           fill="#ecfdf5"/>
  <!-- Leaf -->
  <path d="M32 20 C 22 28, 22 38, 32 44 C 42 38, 42 28, 32 20 Z" fill="#16a34a"/>
  <path d="M32 22 L32 44" stroke="#0f766e" stroke-width="1.2" stroke-linecap="round"/>
  <!-- Water droplet -->
  <path d="M32 28 C 28 33, 28 38, 32 40 C 36 38, 36 33, 32 28 Z" fill="#fff" opacity="0.9"/>
</svg>
